<svg width="61" height="62" viewBox="0 0 61 62" fill="none" xmlns="http://www.w3.org/2000/svg">
<path d="M38.0435 19.3494L38.4426 18.7666L37.7658 18.9686C25.1896 22.7207 18.9552 26.0892 16.1722 28.9306C14.7739 30.3582 14.2283 31.6718 14.2132 32.8479C14.1982 34.0203 14.7113 35.0082 15.3342 35.7855C15.9977 36.6136 16.88 37.3147 18.0677 37.5447C19.2545 37.7746 20.7043 37.5259 22.4871 36.5394C26.0407 34.5731 31.006 29.6265 38.0435 19.3494Z" fill="#0092DB" stroke="#FCF5E5" stroke-width="0.5"/>
<path d="M40.3333 22.2565L40.5585 21.5896L39.9631 21.9651C28.3526 29.2876 23.0217 34.459 21.0172 38.133C20.0105 39.9784 19.8308 41.4683 20.1435 42.6691C20.4553 43.8664 21.2451 44.7315 22.0885 45.3528L22.2338 45.1555L22.0885 45.3528C22.9865 46.0143 24.0688 46.4858 25.3266 46.3921C26.5838 46.2984 27.972 45.6433 29.4894 44.1416C32.5143 41.1481 36.1269 34.716 40.3333 22.2565Z" fill="#25E3F6" stroke="#FCF5E5" stroke-width="0.5"/>
<path d="M38.9006 20.8716L39.2019 20.2347L38.5666 20.5392C25.3082 26.8935 19.0205 31.6878 16.4628 35.2835C15.1783 37.0893 14.8185 38.6156 15.0183 39.8951C15.2175 41.1704 15.9653 42.1516 16.7968 42.8854C17.6829 43.6673 18.7843 44.2693 20.1336 44.3069C21.4822 44.3444 23.0373 43.817 24.8294 42.4226C28.4027 39.6422 32.9943 33.3552 38.9006 20.8716Z" fill="#0046FE" stroke="#FCF5E5" stroke-width="0.5"/>
<path d="M42.5834 21.0147C44.8791 21.0147 46.7431 19.1662 46.7431 16.8824C46.7431 14.5985 44.8791 12.75 42.5834 12.75C40.2878 12.75 38.4238 14.5985 38.4238 16.8824C38.4238 19.1662 40.2878 21.0147 42.5834 21.0147Z" fill="#11B381" stroke="#FCF5E5" stroke-width="0.5"/>
<path d="M45.5331 58.1765V58.4265H45.7831H51.4699C54.804 58.4265 57.0063 57.2541 58.3729 55.7411C59.7322 54.2362 60.25 52.4106 60.25 51.1176V9.47064C60.25 5.10314 56.9451 1.45593 52.1807 1.45593H8.81928C3.68498 1.45593 0.75 5.47146 0.75 9.47064V51.1176C0.75 51.7064 0.993204 52.4552 1.41312 53.2328C1.83623 54.0163 2.45103 54.8521 3.22294 55.6186C4.76474 57.1497 6.95706 58.4265 9.53012 58.4265H10.9518H11.2018V58.1765V57.4706V57.2206H10.9518H10.241C7.64479 57.2206 5.57311 56.1952 4.14991 54.8271C2.72001 53.4525 1.96084 51.7493 1.96084 50.4118V10.1765C1.96084 7.76951 2.82466 5.89661 4.19143 4.6242C5.56086 3.34932 7.45211 2.66181 9.53012 2.66181H51.4699C54.2547 2.66181 56.135 3.57374 57.323 4.9465C58.5165 6.32559 59.0392 8.20199 59.0392 10.1765V50.4118C59.0392 53.1397 57.7591 54.8286 56.1353 55.8471C54.4976 56.8741 52.5038 57.2206 51.1145 57.2206H45.7831H45.5331V57.4706V58.1765Z" fill="#178A1B" stroke="#FCF5E5" stroke-width="0.5"/>
<path d="M28.0117 12.0441H27.7617V12.2941V13.7059C27.7617 14.2354 28.1936 14.6618 28.7226 14.6618H31.566C32.0951 14.6618 32.5268 14.2353 32.5268 13.7059V12.2941V12.0441H32.2768H28.0117Z" fill="#000083" stroke="#FCF5E5" stroke-width="0.5"/>
<path d="M20.9042 0.75C20.3751 0.75 19.9434 1.17634 19.9434 1.70588V6.64706C19.9434 7.17661 20.3751 7.60294 20.9042 7.60294H39.3861C39.9151 7.60294 40.347 7.17665 40.347 6.64706V1.70588C40.347 1.17629 39.9151 0.75 39.3861 0.75H20.9042Z" fill="#000083" stroke="#FCF5E5" stroke-width="0.5"/>
<path d="M32.2775 12.5441H32.5275V12.2941V10.1765C32.5275 9.97635 32.6058 9.87498 32.6895 9.81514C32.786 9.74613 32.9095 9.7206 32.9884 9.7206H50.7594C51.4101 9.7206 51.6695 9.93092 51.7894 10.1293C51.9259 10.3552 51.9311 10.6379 51.9311 10.8824V48.2941C51.9311 49.0937 51.7085 49.5568 51.4651 49.8178C51.2181 50.0827 50.9298 50.1618 50.7594 50.1618H45.7835H45.5335V50.4118V55.3529V55.6029H45.7835H52.1811C53.0724 55.6029 54.3696 55.192 55.4452 54.3498C56.5292 53.5009 57.407 52.198 57.407 50.4118V9.4706C57.407 8.58417 56.9927 7.2952 56.1443 6.22689C55.2892 5.15005 53.9778 4.27942 52.1811 4.27942H32.2775C31.3437 4.27942 30.7356 4.67127 30.3691 5.17679C30.2801 5.29952 30.206 5.4279 30.145 5.55759C30.0839 5.4279 30.0098 5.29951 29.9209 5.17679C29.5543 4.67126 28.9462 4.27942 28.0124 4.27942H8.81966C7.95069 4.27942 6.65252 4.53625 5.56431 5.31429C4.46327 6.10151 3.59375 7.41191 3.59375 9.4706V50.4118C3.59375 51.2757 3.85267 52.5656 4.63654 53.6467C5.42957 54.7405 6.74855 55.6029 8.81966 55.6029H31.5667H31.8167V55.3529V48.2941V48.0441H31.5667H28.0124H27.7624V48.2941V49C27.7624 49.195 27.7014 49.4932 27.5257 49.7356C27.3591 49.9654 27.0787 50.1618 26.5908 50.1618H10.2413C10.0441 50.1618 9.74283 50.101 9.4982 49.9261C9.26641 49.7603 9.06966 49.4825 9.06966 49V10.8824C9.06966 10.6874 9.13062 10.3892 9.30639 10.1468C9.47299 9.91699 9.75341 9.7206 10.2413 9.7206H27.3016C27.3804 9.7206 27.5039 9.74612 27.6004 9.81513C27.6841 9.87496 27.7624 9.97632 27.7624 10.1765V12.2941V12.5441H28.0124H32.2775Z" fill="#178A1B" stroke="#FCF5E5" stroke-width="0.5"/>
<path d="M27.4781 56.1618H10.2401C9.71117 56.1618 9.2793 56.5881 9.2793 57.1176V60.2941C9.2793 60.8237 9.71114 61.25 10.2401 61.25H30.8546C31.3836 61.25 31.8155 60.8238 31.8155 60.2941V56.0588C31.8155 55.5293 31.3836 55.1029 30.8546 55.1029H28.5444C28.1134 55.1029 27.7612 55.4503 27.7612 55.8824C27.7612 56.035 27.6361 56.1618 27.4781 56.1618Z" fill="#000083" stroke="#FCF5E5" stroke-width="0.5"/>
</svg>
